<svg width="39" height="39" viewBox="0 0 39 39" fill="none" xmlns="http://www.w3.org/2000/svg">
<g clip-path="url(#clip0)">
<path d="M3.25 19.5C3.25 21.1234 3.86913 22.5908 4.85713 23.7315L3.07288 24.921L2.119 25.558C0.79625 23.8924 0 21.7912 0 19.5C0 14.1164 4.36638 9.75 9.75 9.75H24.375V4.875L34.125 11.375L24.375 17.875V13H9.75C6.16525 13 3.25 15.9152 3.25 19.5V19.5ZM36.881 13.442L35.9271 14.079L34.1429 15.2685C35.1309 16.4092 35.75 17.8766 35.75 19.5C35.75 23.0848 32.8331 26 29.25 26H14.625V21.125L4.875 27.625L14.625 34.125V29.25H29.25C34.6336 29.25 39 24.8836 39 19.5C39 17.2088 38.2054 15.1076 36.881 13.442V13.442Z" fill="white"/>
</g>
<defs>
<clipPath id="clip0">
<rect width="39" height="39" fill="white"/>
</clipPath>
</defs>
</svg>
