<svg width="35" height="35" viewBox="0 0 35 35" fill="none" xmlns="http://www.w3.org/2000/svg">
<g clip-path="url(#clip0)">
<path d="M11.6667 24.2229C12.1479 24.5146 13.0433 24.7917 14.105 24.7917C16.189 24.7917 17.4665 23.73 17.4665 22.2906C17.4665 21.2042 16.6702 20.459 15.6844 20.2825V20.2563C16.695 19.915 17.1865 19.2208 17.1865 18.3488C17.1865 17.2244 16.2138 16.3027 14.4711 16.3027C13.3977 16.3027 12.425 16.606 11.9321 16.9225L12.3258 18.3123C12.654 18.1096 13.3613 17.8194 14.0306 17.8194C14.8517 17.8194 15.2425 18.1854 15.2425 18.6783C15.2425 19.3725 14.4331 19.6248 13.79 19.6248H13.0317V21.0015H13.8148C14.6606 21.0015 15.47 21.3675 15.47 22.1885C15.47 22.7952 14.964 23.275 13.9679 23.275C13.1848 23.275 12.4017 22.96 12.059 22.769L11.6667 24.2229V24.2229ZM21.735 16.3027C19.6117 16.3027 18.6142 18.1723 18.6142 20.5596C18.6258 22.8842 19.5621 24.7917 21.684 24.7917C23.7694 24.7917 24.7917 23.0358 24.7917 20.5085C24.7917 18.2598 23.9196 16.3027 21.735 16.3027V16.3027ZM21.7219 23.3377C20.9898 23.3377 20.5363 22.4408 20.5363 20.5596C20.5363 18.6404 21.0161 17.7552 21.7117 17.7552C22.4802 17.7552 22.874 18.7148 22.874 20.5333C22.8725 22.4044 22.4671 23.3377 21.7219 23.3377ZM2.93709 12.2631L5.41772 13.8352C4.74688 15.4102 4.37501 17.1413 4.37501 18.9583C4.37501 26.1946 10.2623 32.0833 17.5 32.0833C24.7377 32.0833 30.625 26.1946 30.625 18.9583C30.625 13.8177 27.65 9.36688 23.3333 7.21583V11.6667L14.5833 5.83333L23.3333 0V4.03667C29.3052 6.37 33.5417 12.161 33.5417 18.9583C33.5417 27.8177 26.3594 35 17.5 35C8.64064 35 1.45834 27.8177 1.45834 18.9583C1.45834 16.5652 1.99647 14.3033 2.93709 12.2631V12.2631ZM5.83334 5.83333L14.5833 0V11.6667L5.83334 5.83333V5.83333Z" fill="white"/>
</g>
<defs>
<clipPath id="clip0">
<rect width="35" height="35" fill="white"/>
</clipPath>
</defs>
</svg>
