<svg width="33" height="33" viewBox="0 0 33 33" fill="none" xmlns="http://www.w3.org/2000/svg">
<path d="M8.25 9.625L19.25 2.75V30.25L8.25 23.375V9.625ZM0 23.375H5.5V9.625H0V23.375ZM27.863 5.137L25.8046 7.19537C28.3443 9.647 29.9062 12.9113 29.9062 16.5C29.9062 20.0887 28.3456 23.353 25.8046 25.8033L27.8644 27.863C31.0337 24.9026 33 20.9124 33 16.5C33 12.0876 31.0337 8.09875 27.863 5.137ZM27.1906 16.5C27.1906 13.6345 25.9325 11.0454 23.9126 9.08738L21.846 11.154C23.2361 12.5964 24.0969 14.4554 24.0969 16.5C24.0969 18.546 23.2402 20.4064 21.8501 21.8501L23.9167 23.9167C25.9352 21.9587 27.1906 19.3669 27.1906 16.5V16.5Z" fill="white"/>
</svg>
