<svg width="32" height="32" viewBox="0 0 32 32" fill="none" xmlns="http://www.w3.org/2000/svg">
<path d="M10.6666 22.1467C11.1066 22.4133 11.9253 22.6667 12.896 22.6667C14.8013 22.6667 15.9693 21.696 15.9693 20.38C15.9693 19.3867 15.2413 18.7053 14.34 18.544V18.52C15.264 18.208 15.7133 17.5733 15.7133 16.776C15.7133 15.748 14.824 14.9053 13.2306 14.9053C12.2493 14.9053 11.36 15.1827 10.9093 15.472L11.2693 16.7427C11.5693 16.5573 12.216 16.292 12.828 16.292C13.5786 16.292 13.936 16.6267 13.936 17.0773C13.936 17.712 13.196 17.9427 12.608 17.9427H11.9146V19.2013H12.6306C13.404 19.2013 14.144 19.536 14.144 20.2867C14.144 20.8413 13.6813 21.28 12.7706 21.28C12.0546 21.28 11.3386 20.992 11.0253 20.8173L10.6666 22.1467V22.1467ZM19.872 14.9053C17.9306 14.9053 17.0186 16.6147 17.0186 18.7973C17.0293 20.9227 17.8853 22.6667 19.8253 22.6667C21.732 22.6667 22.6666 21.0613 22.6666 18.7507C22.6666 16.6947 21.8693 14.9053 19.872 14.9053V14.9053ZM19.86 21.3373C19.1906 21.3373 18.776 20.5173 18.776 18.7973C18.776 17.0427 19.2146 16.2333 19.8506 16.2333C20.5533 16.2333 20.9133 17.1107 20.9133 18.7733C20.912 20.484 20.5413 21.3373 19.86 21.3373ZM30.6666 17.3333C30.6666 25.4333 24.1 32 16 32C7.89998 32 1.33331 25.4333 1.33331 17.3333C1.33331 11.1187 5.20665 5.824 10.6666 3.69067V0L18.6666 5.33333L10.6666 10.6667V6.59733C6.71998 8.564 3.99998 12.6333 3.99998 17.3333C3.99998 23.9493 9.38265 29.3333 16 29.3333C22.6173 29.3333 28 23.9493 28 17.3333C28 15.672 27.66 14.0893 27.0466 12.6493L29.3146 11.212C30.1746 13.0773 30.6666 15.1453 30.6666 17.3333ZM18.6666 10.6667V0L26.6666 5.33333L18.6666 10.6667Z" fill="white"/>
</svg>
